HIERARCHY
ROOT Hips
{
	OFFSET 51.531300 -7.305469 56.166901
	CHANNELS 6 Xposition Yposition Zposition Xrotation Yrotation Zrotation
	JOINT spine
	{
		OFFSET 0.000000 -0.367607 6.392601
		CHANNELS 3 Xrotation Yrotation Zrotation
		JOINT spine1
		{
			OFFSET 0.000000 -0.000002 9.176109
			CHANNELS 3 Xrotation Yrotation Zrotation
			JOINT spine2
			{
				OFFSET 0.000000 -0.000001 8.792381
				CHANNELS 3 Xrotation Yrotation Zrotation
				JOINT Neck
				{
					OFFSET 0.000000 -1.076243 22.573700
					CHANNELS 3 Xrotation Yrotation Zrotation
					JOINT Head
					{
						OFFSET 0.000000 -0.000001 6.820107
						CHANNELS 3 Xrotation Yrotation Zrotation
						End Site
						{
							OFFSET 0.000000 5.444268 16.508499
						}
					}
				}
				JOINT RightShoulder
				{
					OFFSET -3.702209 0.515507 9.495087
					CHANNELS 3 Xrotation Yrotation Zrotation
					JOINT RightArm
					{
						OFFSET 0.000000 -0.000002 12.453697
						CHANNELS 3 Xrotation Yrotation Zrotation
						JOINT RightArmRoll
						{
							OFFSET 0.000000 -0.000001 6.286858
							CHANNELS 3 Xrotation Yrotation Zrotation
							JOINT RightForeArm
							{
								OFFSET 0.000000 -0.000003 18.311401
								CHANNELS 3 Xrotation Yrotation Zrotation
								JOINT RightForeArmRoll
								{
									OFFSET 0.000000 -0.000001 7.054832
									CHANNELS 3 Xrotation Yrotation Zrotation
									JOINT RightHand
									{
										OFFSET 0.000000 -0.000002 14.157501
										CHANNELS 3 Xrotation Yrotation Zrotation
										End Site
										{
											OFFSET 0.000000 0.000000 0.100006
										}
									}
								}
							}
						}
					}
				}
				JOINT LeftShoulder
				{
					OFFSET 3.702209 0.515507 9.495087
					CHANNELS 3 Xrotation Yrotation Zrotation
					JOINT LeftArm
					{
						OFFSET 0.000000 -0.000002 12.453697
						CHANNELS 3 Xrotation Yrotation Zrotation
						JOINT LeftArmRoll
						{
							OFFSET 0.000000 -0.000001 6.286858
							CHANNELS 3 Xrotation Yrotation Zrotation
							JOINT LeftForeArm
							{
								OFFSET 0.000000 -0.000003 18.311401
								CHANNELS 3 Xrotation Yrotation Zrotation
								JOINT LeftForeArmRoll
								{
									OFFSET 0.000000 -0.000001 7.054832
									CHANNELS 3 Xrotation Yrotation Zrotation
									JOINT LeftHand
									{
										OFFSET 0.000000 -0.000002 14.157501
										CHANNELS 3 Xrotation Yrotation Zrotation
										End Site
										{
											OFFSET 0.000000 0.000000 0.100006
										}
									}
								}
							}
						}
					}
				}
			}
		}
	}
	JOINT RightUpLeg
	{
		OFFSET -5.666161 0.871610 -1.039028
		CHANNELS 3 Xrotation Yrotation Zrotation
		JOINT RightUpLegRoll
		{
			OFFSET 0.000000 -0.000003 16.600498
			CHANNELS 3 Xrotation Yrotation Zrotation
			JOINT RightLeg
			{
				OFFSET 0.000000 0.000004 -20.557198
				CHANNELS 3 Xrotation Yrotation Zrotation
				JOINT RightLegRoll
				{
					OFFSET 0.000000 -0.000004 20.624397
					CHANNELS 3 Xrotation Yrotation Zrotation
					JOINT RightFoot
					{
						OFFSET 0.000000 -0.000002 17.166405
						CHANNELS 3 Xrotation Yrotation Zrotation
						JOINT RightToeBase
						{
							OFFSET 0.000000 -0.000002 14.350197
							CHANNELS 3 Xrotation Yrotation Zrotation
							End Site
							{
								OFFSET 0.006081 0.801060 6.949707
							}
						}
					}
				}
			}
		}
	}
	JOINT LeftUpLeg
	{
		OFFSET 5.666161 0.871610 -1.039028
		CHANNELS 3 Xrotation Yrotation Zrotation
		JOINT LeftUpLegRoll
		{
			OFFSET 0.000000 -0.000003 16.600597
			CHANNELS 3 Xrotation Yrotation Zrotation
			JOINT LeftLeg
			{
				OFFSET 0.000000 -0.000003 20.557098
				CHANNELS 3 Xrotation Yrotation Zrotation
				JOINT LeftLegRoll
				{
					OFFSET 0.000000 -0.000003 20.815102
					CHANNELS 3 Xrotation Yrotation Zrotation
					JOINT LeftFoot
					{
						OFFSET 0.000000 -0.000002 16.975700
						CHANNELS 3 Xrotation Yrotation Zrotation
						JOINT LeftToeBase
						{
							OFFSET 0.000000 -0.000002 14.350204
							CHANNELS 3 Xrotation Yrotation Zrotation
							End Site
							{
								OFFSET -0.027260 0.801060 6.949707
							}
						}
					}
				}
			}
		}
	}
}
MOTION
Frames: 8
Frame Time: 0.041667
53.675499 -45.846619 86.059486 -0.989195 1.005850 1.638716 -1.733239 0.192509 -0.201682 0.522365 0.409514 -0.399194 2.167444 0.404706 -0.404055 8.111147 -2.346506 0.593943 3.586844 0.733584 0.843765 -6.696872 -60.467364 -8.001026 -41.361935 -115.502365 -36.319661 -0.000000 -0.000001 -0.000003 4.772574 -14.808354 0.351959 0.000001 -0.000010 -3.000001 -5.000209 -7.998753 0.000159 -9.063239 53.438823 10.312033 -35.587181 118.392409 35.472096 0.000002 0.000007 0.000002 2.472940 12.395006 0.134200 0.000000 -0.000000 3.000000 -5.000237 7.998712 -0.000163 -0.628855 -177.389152 0.230781 -179.999991 0.000004 -1.024004 174.021745 -3.840070 -0.609829 0.000005 0.000003 0.052374 68.358644 6.878238 2.232391 25.456955 -7.355615 0.000000 0.139707 175.822019 1.567202 -0.000005 -0.000004 -1.107070 -5.714311 0.339425 0.496328 -0.000008 -0.000002 -0.074591 69.591404 -6.901835 -2.056927 25.456848 7.355619 0.000012 
53.674301 -45.836418 86.060478 -0.996496 0.996209 1.638957 -1.729949 0.195087 -0.201485 0.530173 0.413581 -0.398786 2.175255 0.408780 -0.403675 8.106902 -2.348154 0.594749 3.596034 0.735491 0.844625 -6.696412 -60.468587 -8.000597 -41.352038 -115.513676 -36.351370 0.000002 -0.000000 -0.000003 4.832369 -14.823761 0.361356 -0.000001 -0.000010 -3.000001 -5.000210 -7.998753 0.000159 -9.072609 53.434390 10.323202 -35.589408 118.404430 35.486962 0.000001 0.000008 0.000002 2.481694 12.399622 0.132998 0.000000 -0.000000 3.000001 -5.000238 7.998712 -0.000163 -0.626696 -177.379152 0.235530 -179.999991 0.000005 -1.024004 174.018877 -3.838053 -0.609812 0.000004 0.000003 0.052374 68.356438 6.878253 2.232431 25.456959 -7.355614 0.000001 0.146369 175.835010 1.573340 -0.000005 -0.000004 -1.107050 -5.708390 0.339173 0.495703 -0.000006 -0.000002 -0.073293 69.581876 -6.901842 -2.057321 25.456851 7.355619 0.000012 
53.666695 -45.825718 86.055977 -1.004458 0.986096 1.638738 -1.726551 0.197757 -0.201238 0.538265 0.417803 -0.398278 2.183346 0.413010 -0.403195 8.102180 -2.349974 0.595694 3.605697 0.737792 0.845609 -6.695872 -60.469618 -8.000062 -41.341253 -115.524672 -36.383308 0.000001 -0.000001 -0.000003 4.893743 -14.839718 0.371057 0.000000 -0.000009 -3.000001 -5.000208 -7.998753 0.000160 -9.082933 53.429991 10.335534 -35.590743 118.417312 35.500711 0.000002 0.000007 0.000002 2.489890 12.404245 0.131846 0.000001 -0.000000 3.000001 -5.000239 7.998713 -0.000163 -0.623733 -177.368156 0.240952 -179.999991 0.000005 -1.024004 174.016104 -3.836049 -0.609791 0.000004 0.000003 0.052374 68.354327 6.878242 2.232461 25.456957 -7.355616 0.000001 0.154623 175.848015 1.579705 -0.000005 -0.000004 -1.107040 -5.701310 0.338858 0.495023 -0.000008 -0.000002 -0.071918 69.572047 -6.901874 -2.057739 25.456849 7.355619 0.000012 
53.673199 -45.824520 86.055191 -1.012896 0.975650 1.638199 -1.723070 0.200489 -0.200957 0.546557 0.422134 -0.397701 2.191638 0.417348 -0.402647 8.097125 -2.351914 0.596737 3.615683 0.740367 0.846679 -6.695252 -60.470465 -7.999420 -41.330113 -115.535559 -36.415642 -0.000000 -0.000000 -0.000003 4.956244 -14.856025 0.380981 -0.000000 -0.000009 -3.000001 -5.000209 -7.998753 0.000160 -9.093941 53.425630 10.348706 -35.593154 118.429388 35.515607 0.000001 0.000007 0.000002 2.497707 12.408869 0.130722 -0.000001 -0.000000 3.000001 -5.000240 7.998712 -0.000163 -0.620205 -177.356162 0.246842 -179.999991 0.000005 -1.025001 174.013358 -3.835039 -0.609870 0.000004 0.000003 0.052374 68.352230 6.878266 2.232394 25.456955 -7.355615 0.000001 0.163996 175.862017 1.586237 -0.000005 -0.000004 -1.107050 -5.693429 0.338503 0.494305 -0.000007 -0.000002 -0.070489 69.562185 -6.901832 -2.058245 25.456851 7.355619 0.000012 
53.667000 -45.812626 86.050682 -1.021595 0.965013 1.637467 -1.719540 0.203259 -0.200656 0.554962 0.426526 -0.397084 2.200039 0.421749 -0.402059 8.091892 -2.353925 0.597835 3.625852 0.743102 0.847799 -6.694586 -60.471087 -7.998716 -41.317245 -115.547048 -36.446566 0.000001 -0.000002 -0.000003 5.019380 -14.872399 0.391036 0.000002 -0.000009 -3.000001 -5.000207 -7.998753 0.000160 -9.105315 53.421348 10.362340 -35.595357 118.441422 35.530296 0.000000 0.000008 0.000002 2.505288 12.413596 0.129616 -0.000002 -0.000000 3.000001 -5.000238 7.998712 -0.000163 -0.616355 -177.344154 0.253005 -179.999991 0.000005 -1.025002 174.010680 -3.833022 -0.609840 0.000005 0.000003 0.052374 68.350126 6.878254 2.232426 25.456957 -7.355615 0.000001 0.174003 175.876032 1.592857 -0.000005 -0.000004 -1.107060 -5.685078 0.338122 0.493566 -0.000008 -0.000002 -0.069029 69.552137 -6.901846 -2.058673 25.456848 7.355620 0.000012 
53.703800 -45.845417 86.053078 -1.030364 0.954330 1.636683 -1.716002 0.206039 -0.200350 0.563395 0.430933 -0.396460 2.208471 0.426165 -0.401464 8.086612 -2.355945 0.598947 3.636058 0.745875 0.848929 -6.693923 -60.471729 -7.998000 -41.305576 -115.557744 -36.478937 0.000001 -0.000000 -0.000004 5.082682 -14.888851 0.401157 0.000000 -0.000009 -3.000001 -5.000207 -7.998753 0.000160 -9.116806 53.417055 10.376113 -35.597768 118.453485 35.545158 0.000000 0.000007 0.000002 2.512817 12.418223 0.128516 0.000001 -0.000000 3.000000 -5.000236 7.998713 -0.000163 -0.612427 -177.332147 0.259240 -179.999991 0.000004 -1.025001 174.008003 -3.832013 -0.609915 0.000005 0.000003 0.052374 68.348118 6.878250 2.232348 25.456957 -7.355616 0.000001 0.184170 175.890021 1.599511 -0.000005 -0.000004 -1.107070 -5.676609 0.337736 0.492821 -0.000007 -0.000002 -0.067562 69.542090 -6.901859 -2.059101 25.456848 7.355620 0.000012 
53.696899 -45.829620 86.054794 -1.039002 0.943742 1.635995 -1.712482 0.208800 -0.200055 0.571772 0.435310 -0.395856 2.216853 0.430551 -0.400889 8.081416 -2.357936 0.600030 3.646181 0.748570 0.850034 -6.693278 -60.472460 -7.997323 -41.294098 -115.568508 -36.511278 0.000001 -0.000000 -0.000003 5.145683 -14.905288 0.411273 0.000002 -0.000010 -3.000001 -5.000210 -7.998752 0.000159 -9.128074 53.412677 10.389614 -35.600179 118.465560 35.560031 0.000002 0.000007 0.000002 2.520460 12.422845 0.127406 0.000002 -0.000000 3.000001 -5.000238 7.998713 -0.000163 -0.608657 -177.320153 0.265340 -179.999991 0.000005 -1.025001 174.005312 -3.831001 -0.609992 0.000005 0.000003 0.052374 68.346015 6.878237 2.232477 25.456957 -7.355616 0.000001 0.194019 175.904023 1.606122 -0.000005 -0.000004 -1.107090 -5.668378 0.337361 0.492087 -0.000007 -0.000002 -0.066110 69.532036 -6.901870 -2.059628 25.456851 7.355619 0.000013 
53.711300 -45.837318 86.053688 -1.047299 0.933392 1.635532 -1.709022 0.211515 -0.199785 0.580007 0.439610 -0.395304 2.225083 0.434859 -0.400365 8.076463 -2.359836 0.601043 3.656073 0.751068 0.851075 -6.692677 -60.473293 -7.996703 -41.283005 -115.579382 -36.543465 0.000001 -0.000001 -0.000003 5.207911 -14.921423 0.421291 0.000003 -0.000009 -3.000001 -5.000207 -7.998752 0.000159 -9.138870 53.408330 10.402530 -35.602569 118.477636 35.574934 0.000001 0.000008 0.000002 2.528381 12.427469 0.126271 0.000001 -0.000000 3.000000 -5.000240 7.998713 -0.000163 -0.605291 -177.308145 0.271098 -179.999991 0.000005 -1.025001 174.002553 -3.828984 -0.609966 0.000005 0.000003 0.052374 68.343925 6.878260 2.232412 25.456957 -7.355615 0.000001 0.203069 175.917027 1.612622 -0.000005 -0.000004 -1.107090 -5.660719 0.337015 0.491380 -0.000007 -0.000002 -0.064696 69.522187 -6.901852 -2.060040 25.456853 7.355619 0.000013 
